<?xml version="1.0" encoding="utf-8"?>
<!-- Generator: Adobe Illustrator 18.1.1, SVG Export Plug-In . SVG Version: 6.00 Build 0)  -->
<svg version="1.1" id="Layer_1" xmlns="http://www.w3.org/2000/svg" xmlns:xlink="http://www.w3.org/1999/xlink" x="0px" y="0px"
	 viewBox="292.9 169.6 256 256" enable-background="new 292.9 169.6 256 256" xml:space="preserve">
<path fill="#666766" d="M529.3,380.1h-27.2v-9.2c4.9,0,9.2-3.8,9.2-9.2c0-5.4-3.8-9.2-9.2-9.2h-17.9c-4.9,0-9.2,3.8-9.2,9.2
	c0,5.4,3.8,9.2,9.2,9.2v9.2H367.4v-9.2c4.9,0,9.2-3.8,9.2-9.2c0-5.4-3.8-9.2-9.2-9.2h-17.9c-4.9,0-9.2,3.8-9.2,9.2
	c0,5.4,3.8,9.2,9.2,9.2v9.2h-35.8c-9.8,0-17.9-8.1-17.9-17.9v-126c0-9.8,8.1-17.9,17.9-17.9h215.6c9.8,0,17.9,8.1,17.9,17.9v126
	C547.2,372,539,380.1,529.3,380.1z M367.4,243.8c-10.9,0-19.6,11.4-19.6,26.1c0,14.1,8.7,26.1,19.6,26.1c10.9,0,19.6-11.4,19.6-26.1
	C387,255.2,378.3,243.8,367.4,243.8z M398.4,305.2c-4.9-3.3-19-5.4-19-5.4s-9.2,9.8-13,9.8c-3.8,0-13-9.8-13-9.8s-14.1,2.2-19,5.4
	c-4.9,3.3-7.1,20.1-7.1,20.1h77.7C406,325.8,404.3,309,398.4,305.2z M510.8,254.1h-80.9v9.2h80.9V254.1z M510.8,272h-80.9v9.2h80.9
	V272z M510.8,290h-80.9v9.2h80.9V290z M510.8,308.4h-80.9v9.2h80.9V308.4z"/>
</svg>
